<mxfile host="drawio-plugin" modified="2021-12-12T03:24:11.753Z" agent="5.0 (Windows NT 6.2; Win64; x64) AppleWebKit/537.36 (KHTML, like Gecko) Chrome/89.0.4389.114 Safari/537.36" etag="6Zx-1lijI3ePY5S-RTVc" version="14.7.4" type="embed" pages="4"><diagram id="RlmgxC3qNl6dpa3QdAQR" name="digraph1"><mxGraphModel dx="754" dy="566" grid="1" gridSize="10" guides="1" tooltips="1" connect="1" arrows="1" fold="1" page="1" pageScale="1" pageWidth="827" pageHeight="1169" math="0" shadow="0"><root><mxCell id="0"/><mxCell id="1" parent="0"/><mxCell id="YiOear8wiFDO5ZEr10wr-10" style="edgeStyle=orthogonalEdgeStyle;rounded=0;orthogonalLoop=1;jettySize=auto;html=1;entryX=0.5;entryY=0;entryDx=0;entryDy=0;" parent="1" source="YiOear8wiFDO5ZEr10wr-1" target="YiOear8wiFDO5ZEr10wr-4" edge="1"><mxGeometry relative="1" as="geometry"/></mxCell><mxCell id="YiOear8wiFDO5ZEr10wr-1" value="0" style="ellipse;whiteSpace=wrap;html=1;aspect=fixed;" parent="1" vertex="1"><mxGeometry x="180" y="140" width="50" height="50" as="geometry"/></mxCell><mxCell id="YiOear8wiFDO5ZEr10wr-19" style="edgeStyle=none;rounded=0;orthogonalLoop=1;jettySize=auto;html=1;exitX=1;exitY=1;exitDx=0;exitDy=0;" parent="1" source="YiOear8wiFDO5ZEr10wr-2" target="YiOear8wiFDO5ZEr10wr-6" edge="1"><mxGeometry relative="1" as="geometry"/></mxCell><mxCell id="YiOear8wiFDO5ZEr10wr-2" value="1" style="ellipse;whiteSpace=wrap;html=1;aspect=fixed;" parent="1" vertex="1"><mxGeometry x="310" y="140" width="50" height="50" as="geometry"/></mxCell><mxCell id="YiOear8wiFDO5ZEr10wr-17" style="edgeStyle=none;rounded=0;orthogonalLoop=1;jettySize=auto;html=1;entryX=1;entryY=0.5;entryDx=0;entryDy=0;" parent="1" source="YiOear8wiFDO5ZEr10wr-3" target="YiOear8wiFDO5ZEr10wr-2" edge="1"><mxGeometry relative="1" as="geometry"/></mxCell><mxCell id="YiOear8wiFDO5ZEr10wr-3" value="2" style="ellipse;whiteSpace=wrap;html=1;aspect=fixed;" parent="1" vertex="1"><mxGeometry x="450" y="140" width="50" height="50" as="geometry"/></mxCell><mxCell id="YiOear8wiFDO5ZEr10wr-11" style="edgeStyle=orthogonalEdgeStyle;rounded=0;orthogonalLoop=1;jettySize=auto;html=1;entryX=0.5;entryY=0;entryDx=0;entryDy=0;" parent="1" source="YiOear8wiFDO5ZEr10wr-4" target="YiOear8wiFDO5ZEr10wr-7" edge="1"><mxGeometry relative="1" as="geometry"/></mxCell><mxCell id="YiOear8wiFDO5ZEr10wr-13" style="rounded=0;orthogonalLoop=1;jettySize=auto;html=1;entryX=0;entryY=0;entryDx=0;entryDy=0;" parent="1" source="YiOear8wiFDO5ZEr10wr-4" target="YiOear8wiFDO5ZEr10wr-8" edge="1"><mxGeometry relative="1" as="geometry"/></mxCell><mxCell id="YiOear8wiFDO5ZEr10wr-4" value="3" style="ellipse;whiteSpace=wrap;html=1;aspect=fixed;" parent="1" vertex="1"><mxGeometry x="180" y="270" width="50" height="50" as="geometry"/></mxCell><mxCell id="YiOear8wiFDO5ZEr10wr-5" value="4" style="ellipse;whiteSpace=wrap;html=1;aspect=fixed;" parent="1" vertex="1"><mxGeometry x="310" y="270" width="50" height="50" as="geometry"/></mxCell><mxCell id="YiOear8wiFDO5ZEr10wr-15" style="edgeStyle=none;rounded=0;orthogonalLoop=1;jettySize=auto;html=1;entryX=0.5;entryY=0;entryDx=0;entryDy=0;" parent="1" source="YiOear8wiFDO5ZEr10wr-6" target="YiOear8wiFDO5ZEr10wr-9" edge="1"><mxGeometry relative="1" as="geometry"/></mxCell><mxCell id="YiOear8wiFDO5ZEr10wr-16" style="edgeStyle=none;rounded=0;orthogonalLoop=1;jettySize=auto;html=1;entryX=0.5;entryY=1;entryDx=0;entryDy=0;" parent="1" source="YiOear8wiFDO5ZEr10wr-6" target="YiOear8wiFDO5ZEr10wr-3" edge="1"><mxGeometry relative="1" as="geometry"/></mxCell><mxCell id="YiOear8wiFDO5ZEr10wr-6" value="5" style="ellipse;whiteSpace=wrap;html=1;aspect=fixed;" parent="1" vertex="1"><mxGeometry x="450" y="270" width="50" height="50" as="geometry"/></mxCell><mxCell id="YiOear8wiFDO5ZEr10wr-12" style="edgeStyle=orthogonalEdgeStyle;rounded=0;orthogonalLoop=1;jettySize=auto;html=1;entryX=0;entryY=0.5;entryDx=0;entryDy=0;" parent="1" source="YiOear8wiFDO5ZEr10wr-7" target="YiOear8wiFDO5ZEr10wr-8" edge="1"><mxGeometry relative="1" as="geometry"/></mxCell><mxCell id="YiOear8wiFDO5ZEr10wr-7" value="6" style="ellipse;whiteSpace=wrap;html=1;aspect=fixed;" parent="1" vertex="1"><mxGeometry x="180" y="400" width="50" height="50" as="geometry"/></mxCell><mxCell id="YiOear8wiFDO5ZEr10wr-8" value="7" style="ellipse;whiteSpace=wrap;html=1;aspect=fixed;" parent="1" vertex="1"><mxGeometry x="310" y="400" width="50" height="50" as="geometry"/></mxCell><mxCell id="YiOear8wiFDO5ZEr10wr-14" style="edgeStyle=none;rounded=0;orthogonalLoop=1;jettySize=auto;html=1;entryX=1;entryY=0.5;entryDx=0;entryDy=0;" parent="1" source="YiOear8wiFDO5ZEr10wr-9" target="YiOear8wiFDO5ZEr10wr-8" edge="1"><mxGeometry relative="1" as="geometry"/></mxCell><mxCell id="YiOear8wiFDO5ZEr10wr-9" value="8" style="ellipse;whiteSpace=wrap;html=1;aspect=fixed;" parent="1" vertex="1"><mxGeometry x="450" y="400" width="50" height="50" as="geometry"/></mxCell></root></mxGraphModel></diagram><diagram id="PN6J-3cUDVq6KzX81xdm" name="无向图-DFS"><mxGraphModel dx="754" dy="566" grid="1" gridSize="10" guides="1" tooltips="1" connect="1" arrows="1" fold="1" page="1" pageScale="1" pageWidth="827" pageHeight="1169" math="0" shadow="0"><root><mxCell id="qYHEGhklsvZ3XOmUtH0p-0"/><mxCell id="qYHEGhklsvZ3XOmUtH0p-1" parent="qYHEGhklsvZ3XOmUtH0p-0"/><mxCell id="XDcwSHwaO0lnT_2oKsYs-18" style="edgeStyle=none;rounded=0;orthogonalLoop=1;jettySize=auto;html=1;entryX=0;entryY=0.5;entryDx=0;entryDy=0;startArrow=none;startFill=0;endArrow=none;endFill=0;" parent="qYHEGhklsvZ3XOmUtH0p-1" source="XDcwSHwaO0lnT_2oKsYs-1" target="XDcwSHwaO0lnT_2oKsYs-3" edge="1"><mxGeometry relative="1" as="geometry"/></mxCell><mxCell id="XDcwSHwaO0lnT_2oKsYs-19" style="edgeStyle=none;rounded=0;orthogonalLoop=1;jettySize=auto;html=1;entryX=0.5;entryY=0;entryDx=0;entryDy=0;startArrow=none;startFill=0;endArrow=none;endFill=0;" parent="qYHEGhklsvZ3XOmUtH0p-1" source="XDcwSHwaO0lnT_2oKsYs-1" target="XDcwSHwaO0lnT_2oKsYs-8" edge="1"><mxGeometry relative="1" as="geometry"/></mxCell><mxCell id="XDcwSHwaO0lnT_2oKsYs-1" value="0" style="ellipse;whiteSpace=wrap;html=1;aspect=fixed;" parent="qYHEGhklsvZ3XOmUtH0p-1" vertex="1"><mxGeometry x="180" y="140" width="50" height="50" as="geometry"/></mxCell><mxCell id="XDcwSHwaO0lnT_2oKsYs-21" style="edgeStyle=none;rounded=0;orthogonalLoop=1;jettySize=auto;html=1;exitX=0;exitY=1;exitDx=0;exitDy=0;entryX=1;entryY=0;entryDx=0;entryDy=0;startArrow=none;startFill=0;endArrow=none;endFill=0;" parent="qYHEGhklsvZ3XOmUtH0p-1" source="XDcwSHwaO0lnT_2oKsYs-3" target="XDcwSHwaO0lnT_2oKsYs-8" edge="1"><mxGeometry relative="1" as="geometry"/></mxCell><mxCell id="XDcwSHwaO0lnT_2oKsYs-3" value="1" style="ellipse;whiteSpace=wrap;html=1;aspect=fixed;" parent="qYHEGhklsvZ3XOmUtH0p-1" vertex="1"><mxGeometry x="310" y="140" width="50" height="50" as="geometry"/></mxCell><mxCell id="XDcwSHwaO0lnT_2oKsYs-24" style="edgeStyle=none;rounded=0;orthogonalLoop=1;jettySize=auto;html=1;entryX=0.5;entryY=0;entryDx=0;entryDy=0;startArrow=none;startFill=0;endArrow=none;endFill=0;" parent="qYHEGhklsvZ3XOmUtH0p-1" source="XDcwSHwaO0lnT_2oKsYs-5" target="XDcwSHwaO0lnT_2oKsYs-12" edge="1"><mxGeometry relative="1" as="geometry"/></mxCell><mxCell id="XDcwSHwaO0lnT_2oKsYs-5" value="2" style="ellipse;whiteSpace=wrap;html=1;aspect=fixed;" parent="qYHEGhklsvZ3XOmUtH0p-1" vertex="1"><mxGeometry x="450" y="140" width="50" height="50" as="geometry"/></mxCell><mxCell id="XDcwSHwaO0lnT_2oKsYs-20" style="edgeStyle=none;rounded=0;orthogonalLoop=1;jettySize=auto;html=1;entryX=0.5;entryY=0;entryDx=0;entryDy=0;startArrow=none;startFill=0;endArrow=none;endFill=0;" parent="qYHEGhklsvZ3XOmUtH0p-1" source="XDcwSHwaO0lnT_2oKsYs-8" target="XDcwSHwaO0lnT_2oKsYs-14" edge="1"><mxGeometry relative="1" as="geometry"/></mxCell><mxCell id="XDcwSHwaO0lnT_2oKsYs-8" value="3" style="ellipse;whiteSpace=wrap;html=1;aspect=fixed;" parent="qYHEGhklsvZ3XOmUtH0p-1" vertex="1"><mxGeometry x="180" y="270" width="50" height="50" as="geometry"/></mxCell><mxCell id="XDcwSHwaO0lnT_2oKsYs-22" style="edgeStyle=none;rounded=0;orthogonalLoop=1;jettySize=auto;html=1;entryX=0.5;entryY=0;entryDx=0;entryDy=0;startArrow=none;startFill=0;endArrow=none;endFill=0;" parent="qYHEGhklsvZ3XOmUtH0p-1" source="XDcwSHwaO0lnT_2oKsYs-9" target="XDcwSHwaO0lnT_2oKsYs-15" edge="1"><mxGeometry relative="1" as="geometry"/></mxCell><mxCell id="XDcwSHwaO0lnT_2oKsYs-23" style="edgeStyle=none;rounded=0;orthogonalLoop=1;jettySize=auto;html=1;exitX=1;exitY=1;exitDx=0;exitDy=0;entryX=0;entryY=0;entryDx=0;entryDy=0;startArrow=none;startFill=0;endArrow=none;endFill=0;" parent="qYHEGhklsvZ3XOmUtH0p-1" source="XDcwSHwaO0lnT_2oKsYs-9" target="XDcwSHwaO0lnT_2oKsYs-17" edge="1"><mxGeometry relative="1" as="geometry"/></mxCell><mxCell id="XDcwSHwaO0lnT_2oKsYs-9" value="4" style="ellipse;whiteSpace=wrap;html=1;aspect=fixed;" parent="qYHEGhklsvZ3XOmUtH0p-1" vertex="1"><mxGeometry x="310" y="270" width="50" height="50" as="geometry"/></mxCell><mxCell id="XDcwSHwaO0lnT_2oKsYs-12" value="5" style="ellipse;whiteSpace=wrap;html=1;aspect=fixed;" parent="qYHEGhklsvZ3XOmUtH0p-1" vertex="1"><mxGeometry x="450" y="270" width="50" height="50" as="geometry"/></mxCell><mxCell id="XDcwSHwaO0lnT_2oKsYs-14" value="6" style="ellipse;whiteSpace=wrap;html=1;aspect=fixed;" parent="qYHEGhklsvZ3XOmUtH0p-1" vertex="1"><mxGeometry x="180" y="400" width="50" height="50" as="geometry"/></mxCell><mxCell id="XDcwSHwaO0lnT_2oKsYs-15" value="7" style="ellipse;whiteSpace=wrap;html=1;aspect=fixed;" parent="qYHEGhklsvZ3XOmUtH0p-1" vertex="1"><mxGeometry x="310" y="400" width="50" height="50" as="geometry"/></mxCell><mxCell id="XDcwSHwaO0lnT_2oKsYs-17" value="8" style="ellipse;whiteSpace=wrap;html=1;aspect=fixed;" parent="qYHEGhklsvZ3XOmUtH0p-1" vertex="1"><mxGeometry x="450" y="400" width="50" height="50" as="geometry"/></mxCell></root></mxGraphModel></diagram><diagram id="XqtaAxCrMm37ADvpGtUe" name="Bipartite"><mxGraphModel dx="754" dy="566" grid="1" gridSize="10" guides="1" tooltips="1" connect="1" arrows="1" fold="1" page="1" pageScale="1" pageWidth="827" pageHeight="1169" math="0" shadow="0"><root><mxCell id="XsqwARJMU0s4jP7rleR2-0"/><mxCell id="XsqwARJMU0s4jP7rleR2-1" parent="XsqwARJMU0s4jP7rleR2-0"/><mxCell id="Z5Aat3luIzhw76UPRCKL-1" style="edgeStyle=none;rounded=0;orthogonalLoop=1;jettySize=auto;html=1;entryX=0.5;entryY=0;entryDx=0;entryDy=0;startArrow=none;startFill=0;endArrow=none;endFill=0;" parent="XsqwARJMU0s4jP7rleR2-1" source="Z5Aat3luIzhw76UPRCKL-2" target="Z5Aat3luIzhw76UPRCKL-5" edge="1"><mxGeometry relative="1" as="geometry"/></mxCell><mxCell id="Z5Aat3luIzhw76UPRCKL-7" style="edgeStyle=orthogonalEdgeStyle;rounded=0;orthogonalLoop=1;jettySize=auto;html=1;entryX=0;entryY=0.5;entryDx=0;entryDy=0;endArrow=none;endFill=0;" parent="XsqwARJMU0s4jP7rleR2-1" source="Z5Aat3luIzhw76UPRCKL-2" target="Z5Aat3luIzhw76UPRCKL-4" edge="1"><mxGeometry relative="1" as="geometry"/></mxCell><mxCell id="Z5Aat3luIzhw76UPRCKL-2" value="0" style="ellipse;whiteSpace=wrap;html=1;aspect=fixed;" parent="XsqwARJMU0s4jP7rleR2-1" vertex="1"><mxGeometry x="180" y="140" width="50" height="50" as="geometry"/></mxCell><mxCell id="Z5Aat3luIzhw76UPRCKL-8" style="edgeStyle=orthogonalEdgeStyle;rounded=0;orthogonalLoop=1;jettySize=auto;html=1;entryX=0.5;entryY=0;entryDx=0;entryDy=0;endArrow=none;endFill=0;" parent="XsqwARJMU0s4jP7rleR2-1" source="Z5Aat3luIzhw76UPRCKL-4" target="Z5Aat3luIzhw76UPRCKL-6" edge="1"><mxGeometry relative="1" as="geometry"/></mxCell><mxCell id="Z5Aat3luIzhw76UPRCKL-4" value="1" style="ellipse;whiteSpace=wrap;html=1;aspect=fixed;" parent="XsqwARJMU0s4jP7rleR2-1" vertex="1"><mxGeometry x="310" y="140" width="50" height="50" as="geometry"/></mxCell><mxCell id="Z5Aat3luIzhw76UPRCKL-5" value="2" style="ellipse;whiteSpace=wrap;html=1;aspect=fixed;" parent="XsqwARJMU0s4jP7rleR2-1" vertex="1"><mxGeometry x="180" y="270" width="50" height="50" as="geometry"/></mxCell><mxCell id="Z5Aat3luIzhw76UPRCKL-9" style="edgeStyle=orthogonalEdgeStyle;rounded=0;orthogonalLoop=1;jettySize=auto;html=1;entryX=1;entryY=0.5;entryDx=0;entryDy=0;endArrow=none;endFill=0;" parent="XsqwARJMU0s4jP7rleR2-1" source="Z5Aat3luIzhw76UPRCKL-6" target="Z5Aat3luIzhw76UPRCKL-5" edge="1"><mxGeometry relative="1" as="geometry"/></mxCell><mxCell id="Z5Aat3luIzhw76UPRCKL-6" value="3" style="ellipse;whiteSpace=wrap;html=1;aspect=fixed;" parent="XsqwARJMU0s4jP7rleR2-1" vertex="1"><mxGeometry x="310" y="270" width="50" height="50" as="geometry"/></mxCell><mxCell id="Z5Aat3luIzhw76UPRCKL-10" style="edgeStyle=none;rounded=0;orthogonalLoop=1;jettySize=auto;html=1;entryX=0.5;entryY=0;entryDx=0;entryDy=0;startArrow=none;startFill=0;endArrow=none;endFill=0;" parent="XsqwARJMU0s4jP7rleR2-1" source="Z5Aat3luIzhw76UPRCKL-12" target="Z5Aat3luIzhw76UPRCKL-15" edge="1"><mxGeometry relative="1" as="geometry"/></mxCell><mxCell id="Z5Aat3luIzhw76UPRCKL-11" style="edgeStyle=orthogonalEdgeStyle;rounded=0;orthogonalLoop=1;jettySize=auto;html=1;entryX=0;entryY=0.5;entryDx=0;entryDy=0;endArrow=none;endFill=0;" parent="XsqwARJMU0s4jP7rleR2-1" source="Z5Aat3luIzhw76UPRCKL-12" target="Z5Aat3luIzhw76UPRCKL-14" edge="1"><mxGeometry relative="1" as="geometry"/></mxCell><mxCell id="Z5Aat3luIzhw76UPRCKL-12" value="0" style="ellipse;whiteSpace=wrap;html=1;aspect=fixed;" parent="XsqwARJMU0s4jP7rleR2-1" vertex="1"><mxGeometry x="180" y="420" width="50" height="50" as="geometry"/></mxCell><mxCell id="Z5Aat3luIzhw76UPRCKL-13" style="edgeStyle=orthogonalEdgeStyle;rounded=0;orthogonalLoop=1;jettySize=auto;html=1;entryX=0.5;entryY=0;entryDx=0;entryDy=0;endArrow=none;endFill=0;" parent="XsqwARJMU0s4jP7rleR2-1" source="Z5Aat3luIzhw76UPRCKL-14" target="Z5Aat3luIzhw76UPRCKL-17" edge="1"><mxGeometry relative="1" as="geometry"/></mxCell><mxCell id="Z5Aat3luIzhw76UPRCKL-18" style="rounded=0;orthogonalLoop=1;jettySize=auto;html=1;exitX=0;exitY=1;exitDx=0;exitDy=0;entryX=1;entryY=0;entryDx=0;entryDy=0;endArrow=none;endFill=0;" parent="XsqwARJMU0s4jP7rleR2-1" source="Z5Aat3luIzhw76UPRCKL-14" target="Z5Aat3luIzhw76UPRCKL-15" edge="1"><mxGeometry relative="1" as="geometry"/></mxCell><mxCell id="Z5Aat3luIzhw76UPRCKL-14" value="1" style="ellipse;whiteSpace=wrap;html=1;aspect=fixed;" parent="XsqwARJMU0s4jP7rleR2-1" vertex="1"><mxGeometry x="310" y="420" width="50" height="50" as="geometry"/></mxCell><mxCell id="Z5Aat3luIzhw76UPRCKL-15" value="2" style="ellipse;whiteSpace=wrap;html=1;aspect=fixed;" parent="XsqwARJMU0s4jP7rleR2-1" vertex="1"><mxGeometry x="180" y="550" width="50" height="50" as="geometry"/></mxCell><mxCell id="Z5Aat3luIzhw76UPRCKL-16" style="edgeStyle=orthogonalEdgeStyle;rounded=0;orthogonalLoop=1;jettySize=auto;html=1;entryX=1;entryY=0.5;entryDx=0;entryDy=0;endArrow=none;endFill=0;" parent="XsqwARJMU0s4jP7rleR2-1" source="Z5Aat3luIzhw76UPRCKL-17" target="Z5Aat3luIzhw76UPRCKL-15" edge="1"><mxGeometry relative="1" as="geometry"/></mxCell><mxCell id="Z5Aat3luIzhw76UPRCKL-17" value="3" style="ellipse;whiteSpace=wrap;html=1;aspect=fixed;" parent="XsqwARJMU0s4jP7rleR2-1" vertex="1"><mxGeometry x="310" y="550" width="50" height="50" as="geometry"/></mxCell><mxCell id="Z5Aat3luIzhw76UPRCKL-19" style="edgeStyle=none;rounded=0;orthogonalLoop=1;jettySize=auto;html=1;entryX=0.5;entryY=0;entryDx=0;entryDy=0;startArrow=none;startFill=0;endArrow=none;endFill=0;" parent="XsqwARJMU0s4jP7rleR2-1" source="Z5Aat3luIzhw76UPRCKL-21" target="Z5Aat3luIzhw76UPRCKL-24" edge="1"><mxGeometry relative="1" as="geometry"/></mxCell><mxCell id="Z5Aat3luIzhw76UPRCKL-20" style="edgeStyle=orthogonalEdgeStyle;rounded=0;orthogonalLoop=1;jettySize=auto;html=1;entryX=0;entryY=0.5;entryDx=0;entryDy=0;endArrow=none;endFill=0;" parent="XsqwARJMU0s4jP7rleR2-1" source="Z5Aat3luIzhw76UPRCKL-21" target="Z5Aat3luIzhw76UPRCKL-23" edge="1"><mxGeometry relative="1" as="geometry"/></mxCell><mxCell id="Z5Aat3luIzhw76UPRCKL-27" style="edgeStyle=none;rounded=0;orthogonalLoop=1;jettySize=auto;html=1;exitX=1;exitY=1;exitDx=0;exitDy=0;entryX=0;entryY=0;entryDx=0;entryDy=0;endArrow=none;endFill=0;" parent="XsqwARJMU0s4jP7rleR2-1" source="Z5Aat3luIzhw76UPRCKL-21" target="Z5Aat3luIzhw76UPRCKL-26" edge="1"><mxGeometry relative="1" as="geometry"/></mxCell><mxCell id="Z5Aat3luIzhw76UPRCKL-21" value="0" style="ellipse;whiteSpace=wrap;html=1;aspect=fixed;" parent="XsqwARJMU0s4jP7rleR2-1" vertex="1"><mxGeometry x="490" y="140" width="50" height="50" as="geometry"/></mxCell><mxCell id="Z5Aat3luIzhw76UPRCKL-23" value="1" style="ellipse;whiteSpace=wrap;html=1;aspect=fixed;" parent="XsqwARJMU0s4jP7rleR2-1" vertex="1"><mxGeometry x="620" y="140" width="50" height="50" as="geometry"/></mxCell><mxCell id="Z5Aat3luIzhw76UPRCKL-24" value="2" style="ellipse;whiteSpace=wrap;html=1;aspect=fixed;" parent="XsqwARJMU0s4jP7rleR2-1" vertex="1"><mxGeometry x="490" y="270" width="50" height="50" as="geometry"/></mxCell><mxCell id="Z5Aat3luIzhw76UPRCKL-26" value="3" style="ellipse;whiteSpace=wrap;html=1;aspect=fixed;" parent="XsqwARJMU0s4jP7rleR2-1" vertex="1"><mxGeometry x="620" y="270" width="50" height="50" as="geometry"/></mxCell></root></mxGraphModel></diagram><diagram id="WtGyah5SHnvD1iVylQQb" name="第 4 页"><mxGraphModel dx="754" dy="566" grid="1" gridSize="10" guides="1" tooltips="1" connect="1" arrows="1" fold="1" page="1" pageScale="1" pageWidth="827" pageHeight="1169" math="0" shadow="0"><root><mxCell id="Ct5_iY6TGk_AIZCy85Y_-0"/><mxCell id="Ct5_iY6TGk_AIZCy85Y_-1" parent="Ct5_iY6TGk_AIZCy85Y_-0"/><mxCell id="Ct5_iY6TGk_AIZCy85Y_-2" value="0" style="whiteSpace=wrap;html=1;aspect=fixed;" parent="Ct5_iY6TGk_AIZCy85Y_-1" vertex="1"><mxGeometry x="32" y="280" width="50" height="50" as="geometry"/></mxCell><mxCell id="Ct5_iY6TGk_AIZCy85Y_-3" value="1" style="whiteSpace=wrap;html=1;aspect=fixed;" parent="Ct5_iY6TGk_AIZCy85Y_-1" vertex="1"><mxGeometry x="82" y="280" width="50" height="50" as="geometry"/></mxCell><mxCell id="Ct5_iY6TGk_AIZCy85Y_-4" value="2" style="whiteSpace=wrap;html=1;aspect=fixed;" parent="Ct5_iY6TGk_AIZCy85Y_-1" vertex="1"><mxGeometry x="132" y="280" width="50" height="50" as="geometry"/></mxCell><mxCell id="Ct5_iY6TGk_AIZCy85Y_-5" value="" style="whiteSpace=wrap;html=1;aspect=fixed;" parent="Ct5_iY6TGk_AIZCy85Y_-1" vertex="1"><mxGeometry x="182" y="280" width="50" height="50" as="geometry"/></mxCell><mxCell id="Ct5_iY6TGk_AIZCy85Y_-6" value="" style="whiteSpace=wrap;html=1;aspect=fixed;" parent="Ct5_iY6TGk_AIZCy85Y_-1" vertex="1"><mxGeometry x="232" y="280" width="50" height="50" as="geometry"/></mxCell><mxCell id="Ct5_iY6TGk_AIZCy85Y_-7" value="" style="whiteSpace=wrap;html=1;aspect=fixed;" parent="Ct5_iY6TGk_AIZCy85Y_-1" vertex="1"><mxGeometry x="282" y="280" width="50" height="50" as="geometry"/></mxCell><mxCell id="Ct5_iY6TGk_AIZCy85Y_-8" value="" style="whiteSpace=wrap;html=1;aspect=fixed;" parent="Ct5_iY6TGk_AIZCy85Y_-1" vertex="1"><mxGeometry x="332" y="280" width="50" height="50" as="geometry"/></mxCell><mxCell id="Ct5_iY6TGk_AIZCy85Y_-9" value="" style="whiteSpace=wrap;html=1;aspect=fixed;" parent="Ct5_iY6TGk_AIZCy85Y_-1" vertex="1"><mxGeometry x="382" y="280" width="50" height="50" as="geometry"/></mxCell><mxCell id="Ct5_iY6TGk_AIZCy85Y_-10" value="0" style="text;html=1;strokeColor=none;fillColor=none;align=center;verticalAlign=middle;whiteSpace=wrap;rounded=0;" parent="Ct5_iY6TGk_AIZCy85Y_-1" vertex="1"><mxGeometry x="32" y="240" width="48" height="40" as="geometry"/></mxCell><mxCell id="Ct5_iY6TGk_AIZCy85Y_-11" value="1" style="text;html=1;strokeColor=none;fillColor=none;align=center;verticalAlign=middle;whiteSpace=wrap;rounded=0;" parent="Ct5_iY6TGk_AIZCy85Y_-1" vertex="1"><mxGeometry x="84" y="240" width="48" height="40" as="geometry"/></mxCell><mxCell id="Ct5_iY6TGk_AIZCy85Y_-12" value="2" style="text;html=1;strokeColor=none;fillColor=none;align=center;verticalAlign=middle;whiteSpace=wrap;rounded=0;" parent="Ct5_iY6TGk_AIZCy85Y_-1" vertex="1"><mxGeometry x="132" y="240" width="48" height="40" as="geometry"/></mxCell><mxCell id="Ct5_iY6TGk_AIZCy85Y_-13" value="3" style="text;html=1;strokeColor=none;fillColor=none;align=center;verticalAlign=middle;whiteSpace=wrap;rounded=0;" parent="Ct5_iY6TGk_AIZCy85Y_-1" vertex="1"><mxGeometry x="184" y="240" width="48" height="40" as="geometry"/></mxCell><mxCell id="Ct5_iY6TGk_AIZCy85Y_-14" value="4" style="text;html=1;strokeColor=none;fillColor=none;align=center;verticalAlign=middle;whiteSpace=wrap;rounded=0;" parent="Ct5_iY6TGk_AIZCy85Y_-1" vertex="1"><mxGeometry x="232" y="240" width="48" height="40" as="geometry"/></mxCell><mxCell id="Ct5_iY6TGk_AIZCy85Y_-15" value="5" style="text;html=1;strokeColor=none;fillColor=none;align=center;verticalAlign=middle;whiteSpace=wrap;rounded=0;" parent="Ct5_iY6TGk_AIZCy85Y_-1" vertex="1"><mxGeometry x="284" y="240" width="48" height="40" as="geometry"/></mxCell><mxCell id="Ct5_iY6TGk_AIZCy85Y_-16" value="6" style="text;html=1;strokeColor=none;fillColor=none;align=center;verticalAlign=middle;whiteSpace=wrap;rounded=0;" parent="Ct5_iY6TGk_AIZCy85Y_-1" vertex="1"><mxGeometry x="332" y="240" width="48" height="40" as="geometry"/></mxCell><mxCell id="Ct5_iY6TGk_AIZCy85Y_-17" value="7" style="text;html=1;strokeColor=none;fillColor=none;align=center;verticalAlign=middle;whiteSpace=wrap;rounded=0;" parent="Ct5_iY6TGk_AIZCy85Y_-1" vertex="1"><mxGeometry x="384" y="240" width="48" height="40" as="geometry"/></mxCell></root></mxGraphModel></diagram></mxfile>